HIERARCHY
ROOT Root
{
  OFFSET 0.0 0.0 0.0
  CHANNELS 6 Xposition Yposition Zposition Zrotation Yrotation Xrotation
  JOINT Hips
  {
    OFFSET 0.0 100.0 0.0
    CHANNELS 6 Xposition Yposition Zposition Zrotation Yrotation Xrotation
    JOINT Spine1
    {
      OFFSET -0.013727 5.003763 -0.053727
      CHANNELS 3 Zrotation Yrotation Xrotation
      JOINT Spine2
      {
        OFFSET -0.0 7.125301 -0.029825
        CHANNELS 3 Zrotation Yrotation Xrotation
        JOINT Chest
        {
          OFFSET -1e-06 7.550063 -0.815971
          CHANNELS 3 Zrotation Yrotation Xrotation
          JOINT Neck1
          {
            OFFSET -0.181677 26.311295 -0.553348
            CHANNELS 3 Zrotation Yrotation Xrotation
            JOINT Neck2
            {
              OFFSET -3e-06 7.709397 2.302585
              CHANNELS 3 Zrotation Yrotation Xrotation
              JOINT Head
              {
                OFFSET -5e-06 6.128916 1.953709
                CHANNELS 3 Zrotation Yrotation Xrotation
                JOINT HeadEnd
                {
                  OFFSET 0.003598 16.065403 -1.835379
                  CHANNELS 3 Zrotation Yrotation Xrotation
                }
                JOINT Jaw
                {
                  OFFSET 0.002637 0.475592 3.094941
                  CHANNELS 3 Zrotation Yrotation Xrotation
                }
                JOINT LeftEye
                {
                  OFFSET 3.206381 5.380205 7.586883
                  CHANNELS 3 Zrotation Yrotation Xrotation
                }
                JOINT RightEye
                {
                  OFFSET -3.22244 5.361869 7.558234
                  CHANNELS 3 Zrotation Yrotation Xrotation
                }
              }
            }
          }
          JOINT LeftShoulder
          {
            OFFSET 1.621652 23.237164 5.113413
            CHANNELS 3 Zrotation Yrotation Xrotation
            JOINT LeftArm
            {
              OFFSET 14.919846 2e-06 -5.502326
              CHANNELS 3 Zrotation Yrotation Xrotation
              JOINT LeftForeArm
              {
                OFFSET 28.739307 0.0 -0.002588
                CHANNELS 3 Zrotation Yrotation Xrotation
                JOINT LeftHand
                {
                  OFFSET 27.093981 -1e-06 0.002609
                  CHANNELS 3 Zrotation Yrotation Xrotation
                  JOINT LeftHandThumb1
                  {
                    OFFSET 2.276482 -1.392045 3.191413
                    CHANNELS 3 Zrotation Yrotation Xrotation
                    JOINT LeftHandThumb2
                    {
                      OFFSET 4.012836 -1.828127 1.641654
                      CHANNELS 3 Zrotation Yrotation Xrotation
                      JOINT LeftHandThumb3
                      {
                        OFFSET 2.798515 0.0 -3e-06
                        CHANNELS 3 Zrotation Yrotation Xrotation
                        JOINT LeftHandThumbEnd
                        {
                          OFFSET 3.180793 -4e-06 4e-06
                          CHANNELS 3 Zrotation Yrotation Xrotation
                        }
                      }
                    }
                  }
                  JOINT LeftHandIndex1
                  {
                    OFFSET 3.247555 -0.531998 2.296169
                    CHANNELS 3 Zrotation Yrotation Xrotation
                    JOINT LeftHandIndex2
                    {
                      OFFSET 6.364578 0.01206 0.1786
                      CHANNELS 3 Zrotation Yrotation Xrotation
                      JOINT LeftHandIndex3
                      {
                        OFFSET 3.662364 0.0 0.0
                        CHANNELS 3 Zrotation Yrotation Xrotation
                        JOINT LeftHandIndex4
                        {
                          OFFSET 2.329242 4e-06 4e-06
                          CHANNELS 3 Zrotation Yrotation Xrotation
                          JOINT LeftHandIndexEnd
                          {
                            OFFSET 2.759615 -0.180537 -0.113024
                            CHANNELS 3 Zrotation Yrotation Xrotation
                          }
                        }
                      }
                    }
                  }
                  JOINT LeftHandMiddle1
                  {
                    OFFSET 3.163495 0.240981 1.000332
                    CHANNELS 3 Zrotation Yrotation Xrotation
                    JOINT LeftHandMiddle2
                    {
                      OFFSET 6.19078 -0.259278 -1.002548
                      CHANNELS 3 Zrotation Yrotation Xrotation
                      JOINT LeftHandMiddle3
                      {
                        OFFSET 4.35652 -4e-06 -1e-06
                        CHANNELS 3 Zrotation Yrotation Xrotation
                        JOINT LeftHandMiddle4
                        {
                          OFFSET 2.996877 -8e-06 0.0
                          CHANNELS 3 Zrotation Yrotation Xrotation
                          JOINT LeftHandMiddleEnd
                          {
                            OFFSET 2.304287 -0.294569 -0.031741
                            CHANNELS 3 Zrotation Yrotation Xrotation
                          }
                        }
                      }
                    }
                  }
                  JOINT LeftHandRing1
                  {
                    OFFSET 2.882643 -0.053652 -0.322543
                    CHANNELS 3 Zrotation Yrotation Xrotation
                    JOINT LeftHandRing2
                    {
                      OFFSET 5.854541 -0.486202 -1.373841
                      CHANNELS 3 Zrotation Yrotation Xrotation
                      JOINT LeftHandRing3
                      {
                        OFFSET 4.350578 0.0 3e-06
                        CHANNELS 3 Zrotation Yrotation Xrotation
                        JOINT LeftHandRing4
                        {
                          OFFSET 2.651321 7e-06 2e-06
                          CHANNELS 3 Zrotation Yrotation Xrotation
                          JOINT LeftHandRingEnd
                          {
                            OFFSET 1.936105 0.077687 -7.1e-05
                            CHANNELS 3 Zrotation Yrotation Xrotation
                          }
                        }
                      }
                    }
                  }
                  JOINT LeftHandPinky1
                  {
                    OFFSET 2.8655 -0.310005 -1.600378
                    CHANNELS 3 Zrotation Yrotation Xrotation
                    JOINT LeftHandPinky2
                    {
                      OFFSET 5.087849 -1.331141 -1.77123
                      CHANNELS 3 Zrotation Yrotation Xrotation
                      JOINT LeftHandPinky3
                      {
                        OFFSET 3.070974 4e-06 0.0
                        CHANNELS 3 Zrotation Yrotation Xrotation
                        JOINT LeftHandPinky4
                        {
                          OFFSET 1.549672 0.0 1e-06
                          CHANNELS 3 Zrotation Yrotation Xrotation
                          JOINT LeftHandPinkyEnd
                          {
                            OFFSET 1.944893 -0.157802 0.057219
                            CHANNELS 3 Zrotation Yrotation Xrotation
                          }
                        }
                      }
                    }
                  }
                }
              }
            }
          }
          JOINT RightShoulder
          {
            OFFSET -1.380118 23.180309 5.214158
            CHANNELS 3 Zrotation Yrotation Xrotation
            JOINT RightArm
            {
              OFFSET -15.037196 1.2e-05 -5.545604
              CHANNELS 3 Zrotation Yrotation Xrotation
              JOINT RightForeArm
              {
                OFFSET -28.736639 2e-06 -0.002597
                CHANNELS 3 Zrotation Yrotation Xrotation
                JOINT RightHand
                {
                  OFFSET -27.133619 -0.0 0.002613
                  CHANNELS 3 Zrotation Yrotation Xrotation
                  JOINT RightHandThumb1
                  {
                    OFFSET -2.274032 -1.383988 3.163127
                    CHANNELS 3 Zrotation Yrotation Xrotation
                    JOINT RightHandThumb2
                    {
                      OFFSET -4.011429 -1.827466 1.640914
                      CHANNELS 3 Zrotation Yrotation Xrotation
                      JOINT RightHandThumb3
                      {
                        OFFSET -2.794935 -4e-06 -3e-06
                        CHANNELS 3 Zrotation Yrotation Xrotation
                        JOINT RightHandThumbEnd
                        {
                          OFFSET -3.183852 4e-06 1e-06
                          CHANNELS 3 Zrotation Yrotation Xrotation
                        }
                      }
                    }
                  }
                  JOINT RightHandIndex1
                  {
                    OFFSET -3.253266 -0.520057 2.282866
                    CHANNELS 3 Zrotation Yrotation Xrotation
                    JOINT RightHandIndex2
                    {
                      OFFSET -6.341917 0.012471 0.178266
                      CHANNELS 3 Zrotation Yrotation Xrotation
                      JOINT RightHandIndex3
                      {
                        OFFSET -3.654871 -8e-06 -0.0
                        CHANNELS 3 Zrotation Yrotation Xrotation
                        JOINT RightHandIndex4
                        {
                          OFFSET -2.327586 0.0 1e-06
                          CHANNELS 3 Zrotation Yrotation Xrotation
                          JOINT RightHandIndexEnd
                          {
                            OFFSET -2.76179 -0.180656 -0.113078
                            CHANNELS 3 Zrotation Yrotation Xrotation
                          }
                        }
                      }
                    }
                  }
                  JOINT RightHandMiddle1
                  {
                    OFFSET -3.168106 0.246593 1.00103
                    CHANNELS 3 Zrotation Yrotation Xrotation
                    JOINT RightHandMiddle2
                    {
                      OFFSET -6.180828 -0.258836 -1.000895
                      CHANNELS 3 Zrotation Yrotation Xrotation
                      JOINT RightHandMiddle3
                      {
                        OFFSET -4.348901 0.0 -0.0
                        CHANNELS 3 Zrotation Yrotation Xrotation
                        JOINT RightHandMiddle4
                        {
                          OFFSET -3.00024 -4e-06 -2e-06
                          CHANNELS 3 Zrotation Yrotation Xrotation
                          JOINT RightHandMiddleEnd
                          {
                            OFFSET -2.30252 -0.29437 -0.031706
                            CHANNELS 3 Zrotation Yrotation Xrotation
                          }
                        }
                      }
                    }
                  }
                  JOINT RightHandRing1
                  {
                    OFFSET -2.88569 -0.067952 -0.308858
                    CHANNELS 3 Zrotation Yrotation Xrotation
                    JOINT RightHandRing2
                    {
                      OFFSET -5.854198 -0.48613 -1.373731
                      CHANNELS 3 Zrotation Yrotation Xrotation
                      JOINT RightHandRing3
                      {
                        OFFSET -4.33881 -4e-06 -0.0
                        CHANNELS 3 Zrotation Yrotation Xrotation
                        JOINT RightHandRing4
                        {
                          OFFSET -2.654903 -4e-06 4e-06
                          CHANNELS 3 Zrotation Yrotation Xrotation
                          JOINT RightHandRingEnd
                          {
                            OFFSET -1.933568 0.077527 -5.2e-05
                            CHANNELS 3 Zrotation Yrotation Xrotation
                          }
                        }
                      }
                    }
                  }
                  JOINT RightHandPinky1
                  {
                    OFFSET -2.866425 -0.342796 -1.584145
                    CHANNELS 3 Zrotation Yrotation Xrotation
                    JOINT RightHandPinky2
                    {
                      OFFSET -5.091371 -1.332055 -1.772385
                      CHANNELS 3 Zrotation Yrotation Xrotation
                      JOINT RightHandPinky3
                      {
                        OFFSET -3.062664 -4e-06 1e-06
                        CHANNELS 3 Zrotation Yrotation Xrotation
                        JOINT RightHandPinky4
                        {
                          OFFSET -1.546529 4e-06 -2e-06
                          CHANNELS 3 Zrotation Yrotation Xrotation
                          JOINT RightHandPinkyEnd
                          {
                            OFFSET -1.945119 -0.157718 0.057211
                            CHANNELS 3 Zrotation Yrotation Xrotation
                          }
                        }
                      }
                    }
                  }
                }
              }
            }
          }
        }
      }
    }
    JOINT LeftLeg
    {
      OFFSET 10.043214 -8.434526 2.595655
      CHANNELS 3 Zrotation Yrotation Xrotation
      JOINT LeftShin
      {
        OFFSET -1e-06 -43.221752 -0.802913
        CHANNELS 3 Zrotation Yrotation Xrotation
        JOINT LeftFoot
        {
          OFFSET 1e-06 -42.155094 -3.481523
          CHANNELS 3 Zrotation Yrotation Xrotation
          JOINT LeftToeBase
          {
            OFFSET 0.0 -5.059472 13.231529
            CHANNELS 3 Zrotation Yrotation Xrotation
            JOINT LeftToeEnd
            {
              OFFSET -0.009607 -1.647619 6.513017
              CHANNELS 3 Zrotation Yrotation Xrotation
            }
          }
        }
      }
    }
    JOINT RightLeg
    {
      OFFSET -10.047278 -8.29526 2.620317
      CHANNELS 3 Zrotation Yrotation Xrotation
      JOINT RightShin
      {
        OFFSET 1e-06 -43.362206 -0.805556
        CHANNELS 3 Zrotation Yrotation Xrotation
        JOINT RightFoot
        {
          OFFSET 2e-06 -42.117393 -3.478398
          CHANNELS 3 Zrotation Yrotation Xrotation
          JOINT RightToeBase
          {
            OFFSET -0.0 -5.079609 13.284196
            CHANNELS 3 Zrotation Yrotation Xrotation
            JOINT RightToeEnd
            {
              OFFSET 0.009532 -1.634378 6.460591
              CHANNELS 3 Zrotation Yrotation Xrotation
            }
          }
        }
      }
    }
  }
}
MOTION
Frames: 5
Frame Time: 0.03333333333333333
0.0 0.0 0.0 0.0 -0.0 0.0 5.955908 97.465675 1.970155 -2.984482 0.233563 4.893356 -0.336789 -0.63192 3.524677 -0.129027 -2.237406 -4.103715 3.517093 -3.929158 10.608922 8.518715 -0.8227 10.648551 -0.643431 0.8032 -3.787473 1.804621 -0.839729 -14.038259 7.7e-05 -2.3e-05 6e-06 0.004734 0.186731 -0.034742 0.714888 -3.494213 -10.616427 -0.708219 3.881931 -10.650975 5.276854 -9.099101 14.99437 -65.775017 14.179183 8.848017 -173.981552 -74.054268 174.989792 -2.850351 16.688696 -3.251632 -5.882103 9.861283 0.702589 -10.936859 -0.360573 7.156196 -3e-06 8.774818 -1e-06 -16.02281 18.302279 6.189609 -1.844032 2.498505 -2.507275 -10.163589 4.678941 4.621101 -20.976004 1e-06 -0.0 -21.226269 2.451697 -3.594001 0.0 -6e-06 1e-06 -1.362681 2.240797 -0.746322 -21.334888 0.584911 3.008318 -13.821199 0.0 -0.0 -23.887146 -0.249077 -0.839488 -60.214947 2.497849 -0.741917 -0.294026 1.679688 0.833256 -14.218197 0.093218 1.300579 -34.212013 -0.287558 0.967163 -20.033194 0.964537 1.212837 -1e-06 1e-06 -0.0 -3.440385 0.788233 0.501654 -15.928168 -3.167304 2.999704 -6.338818 1e-06 -0.0 -18.123428 3.648183 -4.905669 -4e-06 2e-06 -1e-06 5.938381 6.552725 13.969627 59.815643 3.415318 4.61476 -178.345306 67.601852 -177.880646 -10.41027 -1.278235 7.432401 2.243541 -5.255035 -3.180158 14.282879 -0.826594 6.952497 -0.0 -12.690597 1e-06 14.843046 -17.129591 3.146715 1.665665 -1.95592 -2.878297 4.727796 -4.170586 4.993921 11.020517 1e-06 -4e-06 12.109041 -3.735714 -2.866782 0.0 0.0 -1e-06 1.291984 -1.928549 -1.498088 14.800117 0.567467 3.865605 14.242562 -1.341738 -6.660655 19.631952 0.143924 -0.648247 48.74041 -1.150973 -5.813375 0.353029 -1.51115 -0.03194 20.222775 3.684307 2.316628 18.787256 3e-06 -2e-06 10.751617 -0.47987 1.397906 -0.0 1e-06 -0.0 3.273804 0.305946 -0.580111 21.48679 11.830367 2.266131 8.162922 1e-06 0.0 18.399069 -3.798984 -4.940576 4e-06 -0.0 -1e-06 2.531296 19.909712 -10.947102 -0.069812 -0.712762 26.263269 -1.766742 -4.401003 -19.543676 1.625015 -1.678107 -1.772635 0.0 -0.0 2e-06 -2.407138 -6.535107 -13.429912 0.234178 0.254129 29.613874 3.476446 4.086821 -15.695436 -1.44817 0.814022 -3.145 0.0 0.0 -1e-06 
0.0 0.0 0.0 0.0 -0.0 0.0 5.79001 97.668045 2.100598 -2.732156 -1.718714 5.986679 -0.374192 -0.511536 4.367034 -0.208424 -1.945358 -3.758729 2.711555 -3.763958 10.465714 8.328781 -0.029594 9.050226 -0.622171 1.41744 -3.713961 2.425526 -0.57519 -14.368584 7.6e-05 -2.3e-05 6e-06 0.002707 0.193544 -0.055379 0.753779 -3.501133 -10.67222 -0.750786 3.903111 -10.719895 5.447881 -8.974224 14.802403 -65.33812 16.757624 5.498623 -175.211319 -73.491249 176.421768 -1.468308 15.394277 -0.45318 -5.882102 9.861278 0.70259 -10.936863 -0.360575 7.156201 -2e-06 8.774817 -0.0 -15.801595 18.361572 6.340781 -1.844031 2.498504 -2.507275 -10.163592 4.678943 4.621105 -20.976006 2e-06 5e-06 -21.226269 2.4517 -3.593998 0.0 -6e-06 -1e-06 -1.362681 2.240795 -0.746323 -21.3349 0.584911 3.008325 -13.821204 1e-06 4e-06 -23.887154 -0.249075 -0.839482 -60.091125 2.569732 -0.818906 -0.294022 1.679687 0.833255 -14.218196 0.093216 1.300584 -34.212013 -0.287557 0.967171 -20.033194 0.964538 1.212842 0.0 0.0 0.0 -3.440387 0.788234 0.501656 -15.928176 -3.167304 2.999707 -6.338821 -0.0 3e-06 -18.123438 3.648182 -4.90567 -3e-06 1e-06 -1e-06 3.027606 7.597424 13.395891 60.74633 3.36969 4.217009 -178.488785 64.876358 -177.780975 -10.970959 0.08398 7.500171 2.243539 -5.25503 -3.180154 14.282875 -0.82659 6.952493 -3e-06 -12.69059 -1e-06 14.826169 -17.151546 3.163863 1.665664 -1.955919 -2.878295 4.727793 -4.17058 4.993917 11.020515 4e-06 -2e-06 12.109038 -3.73571 -2.86678 -2e-06 -0.0 1e-06 1.291984 -1.928547 -1.498088 14.800112 0.56747 3.865602 14.242558 -1.341734 -6.660649 19.631945 0.143928 -0.648242 48.344563 -1.176974 -5.93709 0.353028 -1.511149 -0.03194 20.222771 3.684309 2.316624 18.787254 8e-06 -1e-06 10.751616 -0.479867 1.397904 -0.0 1e-06 -0.0 3.273803 0.305947 -0.580109 21.486795 11.830364 2.266132 8.162921 3e-06 -1e-06 18.399067 -3.798976 -4.940569 4e-06 1e-06 -1e-06 1.809645 21.051844 -12.649475 -0.052792 -0.588514 27.72625 -1.745384 -3.505815 -18.4095 1.66758 -1.686184 -2.227798 0.0 -0.0 2e-06 -2.631644 -4.685856 -16.196653 0.289069 0.537978 33.691425 3.034898 4.851724 -15.179692 -1.433693 0.762716 -3.414908 0.0 -0.0 -1e-06 
0.0 0.0 0.0 0.0 -0.0 0.0 5.428995 97.603622 2.105131 -2.899549 -2.777184 6.453876 -0.282018 -0.368987 5.460989 -0.284937 -1.823924 -3.349841 2.015992 -3.679342 10.606796 8.142592 0.589919 7.714736 -0.381501 1.606837 -3.676124 2.771399 0.044874 -14.729433 7.6e-05 -2.2e-05 6e-06 0.015915 0.103256 -0.054528 0.808594 -3.596749 -10.683361 -0.77968 3.816542 -10.735161 6.146066 -9.090577 14.688843 -64.980293 17.679789 2.588211 -176.614014 -75.237694 177.58194 0.517897 13.61165 2.859549 -5.882103 9.861283 0.70259 -10.936868 -0.360574 7.156202 -0.0 8.774824 -0.0 -15.64544 18.380651 6.547992 -1.844033 2.498504 -2.507276 -10.163595 4.678943 4.621104 -20.976017 -2e-06 -1e-06 -21.226282 2.451697 -3.593999 1e-06 -6e-06 -1e-06 -1.362683 2.240799 -0.746326 -21.334906 0.58491 3.008317 -13.821209 -0.0 1e-06 -23.887165 -0.24908 -0.839486 -60.108047 2.677827 -0.704338 -0.294024 1.679688 0.833255 -14.218202 0.093216 1.300577 -34.212036 -0.287565 0.967167 -20.033205 0.964535 1.212839 1e-06 -0.0 1e-06 -3.440387 0.788235 0.501654 -15.928179 -3.167308 2.999703 -6.338824 0.0 -0.0 -18.123444 3.648182 -4.905669 -4e-06 1e-06 -2e-06 0.014564 8.60771 12.816085 61.467373 3.666909 3.22028 -178.798187 65.541878 -177.738327 -11.11275 1.111697 7.924045 2.243541 -5.255034 -3.180153 14.282881 -0.826596 6.952495 0.0 -12.690597 -1e-06 14.575265 -17.172918 3.085042 1.665665 -1.95592 -2.878297 4.727797 -4.170586 4.993921 11.02052 2e-06 -2e-06 12.109046 -3.735715 -2.866783 -2e-06 0.0 -0.0 1.291985 -1.928548 -1.49809 14.80012 0.567466 3.865602 14.242563 -1.341738 -6.660655 19.631954 0.143924 -0.648248 48.118271 -0.926169 -6.101364 0.353029 -1.51115 -0.03194 20.222778 3.684306 2.316624 18.787262 3e-06 -6e-06 10.75162 -0.479869 1.397903 2e-06 1e-06 -0.0 3.273805 0.305946 -0.58011 21.486799 11.830365 2.266131 8.16292 1e-06 -2e-06 18.399069 -3.798983 -4.940576 3e-06 0.0 -1e-06 1.944297 21.062674 -15.500707 0.017087 -0.496663 32.509193 -1.642402 -2.603724 -17.055136 1.692425 -1.777236 -3.640836 -0.0 0.0 2e-06 -1.894374 -2.403613 -17.268221 0.237669 0.663931 36.591259 1.732487 2.958761 -15.049219 -1.42936 0.72863 -3.937743 0.0 -0.0 -1e-06 
0.0 0.0 0.0 0.0 -0.0 0.0 4.918005 97.132858 2.02157 -3.166503 -2.956586 6.061914 -0.32957 -0.205286 7.039801 -0.377434 -1.838577 -2.939074 1.444283 -3.532605 11.099408 8.089313 0.715034 7.133407 -0.127573 1.927496 -3.552076 2.921473 0.625575 -14.818181 7.7e-05 -2.3e-05 5e-06 0.025303 0.052718 -0.014307 0.819194 -3.6369 -10.629565 -0.772066 3.753759 -10.677362 7.510662 -9.553435 14.547479 -63.914604 16.83462 0.492869 -177.446472 -78.511848 178.060318 1.96052 12.016107 5.899062 -5.882101 9.861277 0.702591 -10.936857 -0.360575 7.156194 -0.0 8.774817 -1e-06 -15.790535 18.272987 6.561822 -1.844031 2.498503 -2.507275 -10.163588 4.678942 4.621101 -20.976 -5e-06 -3e-06 -21.226265 2.451692 -3.594 0.0 -5e-06 -0.0 -1.362681 2.240797 -0.746322 -21.334894 0.584911 3.008316 -13.8212 -3e-06 -0.0 -23.887146 -0.249079 -0.839487 -60.032337 2.725682 -0.642043 -0.294025 1.679686 0.833256 -14.218193 0.093214 1.300575 -34.212009 -0.287566 0.967163 -20.033192 0.964534 1.21284 1e-06 -0.0 2e-06 -3.440386 0.788233 0.501654 -15.928168 -3.167307 2.999698 -6.338819 0.0 0.0 -18.123426 3.648179 -4.90567 -4e-06 0.0 -2e-06 -2.623762 9.404263 12.72547 61.517159 4.34486 -0.025005 179.100861 69.377037 -179.345062 -10.739854 1.235811 8.690051 2.243541 -5.255032 -3.180157 14.282881 -0.826594 6.952497 -2e-06 -12.690594 0.0 14.32671 -17.20517 2.997727 1.665665 -1.95592 -2.878294 4.727797 -4.170584 4.993918 11.020519 2e-06 0.0 12.109041 -3.735713 -2.866781 1e-06 -2e-06 -0.0 1.291984 -1.928548 -1.498086 14.800115 0.567467 3.865603 14.24256 -1.341735 -6.660653 19.631952 0.143923 -0.648243 48.113392 -0.567967 -6.307972 0.353029 -1.51115 -0.031941 20.222775 3.684305 2.316629 18.787262 4e-06 -3e-06 10.75162 -0.479869 1.397904 -1e-06 0.0 -1e-06 3.273805 0.305947 -0.580112 21.486801 11.830364 2.266129 8.162923 2e-06 -3e-06 18.399073 -3.798984 -4.940573 3e-06 0.0 -1e-06 2.64981 19.710642 -19.757887 0.00212 -0.490985 41.517403 -1.422289 -1.391 -14.556383 1.765876 -1.948909 -6.31913 -0.0 0.0 1e-06 -0.70464 -0.292229 -16.300074 0.156494 0.551674 37.253716 -0.461027 -0.27697 -15.718118 -1.405487 0.711659 -5.263582 0.0 0.0 -1e-06 
0.0 0.0 0.0 0.0 -0.0 0.0 4.323993 95.915108 2.032132 -3.192148 -2.495261 5.284459 -0.716909 -0.094392 8.64666 -0.438273 -1.749399 -2.638729 0.964539 -3.25793 11.957146 8.227575 0.483113 7.721082 0.093774 2.187393 -3.539796 2.899042 1.376515 -14.062417 7.6e-05 -2.3e-05 6e-06 0.044958 -0.046541 -0.008358 0.792104 -3.732076 -10.633553 -0.704711 3.644268 -10.653003 9.230609 -10.475919 13.933279 -61.741402 15.773776 -0.589428 -175.924072 -80.963013 176.507019 1.601534 10.848973 8.43167 -5.882103 9.861281 0.702591 -10.936867 -0.360574 7.156201 -2e-06 8.774821 -2e-06 -16.371664 18.187798 6.164549 -1.844032 2.498505 -2.507276 -10.163593 4.678942 4.621104 -20.976013 -1e-06 2e-06 -21.226274 2.451698 -3.594 0.0 -7e-06 -1e-06 -1.362681 2.240798 -0.746323 -21.334904 0.58491 3.00832 -13.821205 -2e-06 0.0 -23.887157 -0.249079 -0.839483 -59.886642 2.759333 -0.941721 -0.294024 1.679687 0.833256 -14.218199 0.093215 1.30058 -34.212032 -0.287562 0.967171 -20.033201 0.964538 1.212842 0.0 1e-06 1e-06 -3.440387 0.788233 0.501656 -15.928177 -3.167309 2.999707 -6.338823 0.0 2e-06 -18.123438 3.648183 -4.905671 -5e-06 1e-06 -3e-06 -3.340211 9.846271 12.963854 59.290722 4.158466 -6.123556 176.070847 73.937355 178.003494 -9.899889 -0.099039 10.363755 2.24354 -5.255033 -3.180153 14.282878 -0.826596 6.952498 -1e-06 -12.690597 -2e-06 14.319261 -17.213755 2.955517 1.665665 -1.95592 -2.878294 4.727796 -4.170584 4.993917 11.020517 -0.0 1e-06 12.109043 -3.735716 -2.866781 1e-06 -1e-06 -1e-06 1.291985 -1.928548 -1.498084 14.800117 0.567465 3.865606 14.24256 -1.341738 -6.660653 19.631952 0.14392 -0.648246 48.527428 -0.321821 -6.324543 0.353028 -1.51115 -0.031939 20.222773 3.684305 2.316628 18.787258 3e-06 -2e-06 10.751617 -0.479871 1.397903 -0.0 2e-06 -1e-06 3.273804 0.305947 -0.580109 21.486792 11.830362 2.26613 8.162917 1e-06 -3e-06 18.399067 -3.798985 -4.940575 3e-06 -1e-06 -0.0 3.0095 18.54365 -25.221579 -0.08727 -0.450163 52.570629 -1.216058 -1.433762 -11.996237 1.840986 -2.035316 -8.025438 0.0 -0.0 1e-06 0.079033 1.01267 -14.551138 0.141407 0.374358 36.79126 -0.977477 -3.37816 -19.429306 -1.41572 0.830295 -4.997067 0.0 0.0 -1e-06 
